<?xml version="1.0" encoding="utf-8"?>
<!-- Generated by IcoMoon.io -->
<!DOCTYPE svg PUBLIC "-//W3C//DTD SVG 1.1//EN" "http://www.w3.org/Graphics/SVG/1.1/DTD/svg11.dtd">
<svg version="1.1" xmlns="http://www.w3.org/2000/svg" xmlns:xlink="http://www.w3.org/1999/xlink" width="48" height="48" viewBox="0 0 48 48">
	<path d="M40.001 0h-32c-4.4 0-8.001 3.601-8.001 8.001v31.998c0 4.403 3.601 8.001 8.001 8.001l32-0c4.4 0 7.999-3.597 7.999-8.001v-31.998c0-4.4-3.599-8.001-7.999-8.001zM40.809 24h-7.809v21h-9v-21h-4.337v-6.87h4.337v-4.462c0-6.063 2.615-9.668 9.744-9.668h8.215v7.433h-6.709c-1.991-0.003-2.238 1.038-2.238 2.977l-0.011 3.72h9l-1.191 6.87z" />
</svg>
