<?xml version="1.0" encoding="utf-8"?>
<!-- Generated by IcoMoon.io -->
<!DOCTYPE svg PUBLIC "-//W3C//DTD SVG 1.1//EN" "http://www.w3.org/Graphics/SVG/1.1/DTD/svg11.dtd">
<svg version="1.1" xmlns="http://www.w3.org/2000/svg" xmlns:xlink="http://www.w3.org/1999/xlink" width="48" height="48" viewBox="0 0 48 48">
	<path d="M40 0h-31.999c-4.4 0-8.001 3.6-8.001 8.001v31.998c0 4.403 3.601 8.001 8.001 8.001h31.999c4.4 0 8-3.598 8-8.001v-31.998c0-4.401-3.599-8.001-8-8.001zM39.284 16.023c0.015 0.344 0.023 0.69 0.023 1.038 0 10.604-7.932 22.831-22.437 22.831-4.453 0-8.598-1.329-12.088-3.606 0.617 0.074 1.245 0.112 1.881 0.112 3.695 0 7.095-1.283 9.794-3.435-3.451-0.065-6.363-2.385-7.367-5.573 0.482 0.094 0.976 0.144 1.484 0.144 0.719 0 1.416-0.098 2.077-0.282-3.607-0.737-6.326-3.98-6.326-7.868 0-0.034 0-0.067 0.001-0.101 1.063 0.601 2.279 0.962 3.572 1.004-2.116-1.439-3.508-3.895-3.508-6.679 0-1.47 0.389-2.849 1.068-4.034 3.889 4.855 9.7 8.049 16.254 8.384-0.135-0.587-0.204-1.2-0.204-1.829 0-4.431 3.531-8.024 7.886-8.024 2.268 0 4.318 0.974 5.756 2.534 1.796-0.36 3.484-1.028 5.008-1.947-0.589 1.874-1.839 3.446-3.467 4.44 1.595-0.194 3.115-0.625 4.529-1.263-1.057 1.609-2.394 3.022-3.935 4.154z" />
</svg>
